<svg xmlns="http://www.w3.org/2000/svg" viewBox="0 0 120 667.39"><path class="path3" d="M41.6.2c-15,35.33-13,72.16,7,95a65.5,65.5,0,0,0,24,17,18.15,18.15,0,0,1-12,1c-5.29-1.52-10.8-6.09-10-9,.72-2.6,6.33-3.43,10-3,1.48.16,7.31.83,10,6,1.47,2.81,2.1,7.14,0,10-3.61,4.92-13.43,2.89-19,0-.85-.45-12.27-6.58-11-15,1.06-7,10.19-11.11,17-11,6,.09,6.13,3.38,16,7,3.74,1.36,13.32,4.87,25,4,5.5-.42,7.61-1.51,11,0,4.46,2,8.58,7.28,8,13-.64,6.37-6.78,9.77-9,11-6.27,3.47-9.66,1.28-18,3-10.47,2.15-9.79,6.56-21,10-.87.26-20.26,6-26-2a8.6,8.6,0,0,1-1-8c2.3-5.4,12.42-7.13,20-5s8.25,7,21,13c3.2,1.49,6.38,2.68,10,2,4-.75,4.74-3,8-4,5.92-1.78,14.41,2.35,17,8,3.82,8.32-5.58,19.08-9,23-19.18,22-60.66,32-78,15-6.16-6.06-11-17.22-8-26,2.67-7.79,11.59-14,13-15,6.18-4.31,10.18-4.53,12-9,1.64-4,.72-9.54-2-11-1.73-.94-2.73.56-5,0-3.93-1-4.07-6.24-9-13-2.83-3.9-5.25-7.22-8-7-4,.32-3.56,7.84-11,14-4.77,4-7.06,2.58-10,6-4.42,5.14-3.16,12.84-2,20,1.66,10.13,3.48,21.3,13,27,6.65,4,13.77,3.24,16,3,18-1.95,34.69-25.47,44-58,3.56,1.71,4.7,3.53,5,5,1.3,6.22-10.73,14.19-21,21-12.54,8.31-16.9,9-18,14-1,4.41.45,12.83,5,18a6.53,6.53,0,0,1,2,3c.91,3.75-3.57,5.82-5,12-.18.79-1.39,6.33,1,8,2.2,1.52,6.31-1,8-2,8-4.88,7.35-10.63,13-13,4.7-2,12.05-.92,15,4,2.56,4.24,1.4,10.66-2,13-2.8,1.93-5.58,0-12,0a40.82,40.82,0,0,0-14,3c-21.54,8.85-17.13,104.87-15,120a14.76,14.76,0,0,1-1,8c-1.91,4.35-6.81,9-11,8-4.81-1.11-8.1-9.45-6-15,2.8-7.37,12.94-4.23,23-13,6.4-5.58,8.74-12.45,13-25,5.73-16.85,2.56-20.16,8-27s10.64-6.14,24-14a112.08,112.08,0,0,0,20-15,46.73,46.73,0,0,0,0,11c1.24,10.18,5.37,15.13,7,20,4.38,13-6.51,32.76-20,42-12.54,8.58-33.32,12.14-50,15-3.7.63-8.32,1.32-12,5-7.86,7.85-4.69,22.63-3,31,11.09,54.72,2.14,48.26,11,71,14.54,37.27,37.68,48.06,53,69,19.67,26.85,29.91,76.76-12,178"/></svg>