<svg xmlns="http://www.w3.org/2000/svg" viewBox="0 0 97.9 561.04"><defs><style>.cls-1{fill:none;stroke:#000;stroke-linecap:round;stroke-linejoin:round;stroke-width:2px;}</style></defs><g id="레이어_2" data-name="레이어 2"><g id="레이어_1-2" data-name="레이어 1"><path class="cls-1" d="M45.77,201.19a115.33,115.33,0,0,0,12-50.77,112.61,112.61,0,0,0-3.69-28.61A38.49,38.49,0,0,1,37,123.19C15.93,120,6.11,99.44,5.16,97.35A48.35,48.35,0,0,1,1.92,68.27c10.7,6.35,18.92,11.15,23.54,13.85,16,9.3,21.3,12.24,26.31,18.92a45.23,45.23,0,0,1,7.85,17.54,23.34,23.34,0,0,1-12-4.16c-12.15-8.85-10.56-28.85-9.7-39.69,2.48-31.1,19.69-55,31.39-68.31A148.57,148.57,0,0,0,53.16,39.65c-8,23.52-8,39.64-7.85,43.85.54,15.74,4.5,22.38,6.63,25.38,1.78,2.51,7,9.83,15.75,11.6,0,0,11.86,2.39,23-7.67C113.08,92.65,67.83,7.06,64.58,1a152.9,152.9,0,0,1,9.34,28.73c7.17,32.79,1.44,59.13-4.15,85.5-22.21,104.87-9.54,56.82-20.08,98-26.42,103.23-31.48,114.08-36,135.69C4.07,395,2.29,464.18,42.77,560"/></g></g></svg>