<svg xmlns="http://www.w3.org/2000/svg" viewBox="0 0 155.12 522.38"><defs><style>.cls-1{fill:none;stroke:#000;stroke-linecap:round;stroke-linejoin:round;stroke-width:2px;}</style></defs><g id="레이어_2" data-name="레이어 2"><g id="레이어_1-2" data-name="레이어 1"><path class="cls-1" d="M98.34,113.85c2.5,10.22,4.83,26,.47,43.84-2.67,10.91-5.29,12.19-10.16,28.62C83,205.34,79,219.68,85,232.46c3.83,8.16,7.4,6.38,14.77,15.69,12.86,16.25,13.48,36.16,14.31,62.77.68,21.92-2.21,22.37-1.39,34.62,1.09,16.22,7.38,39.23,31.85,66.46a83.44,83.44,0,0,0,7.84-24c1-6,7.95-46.35-14.76-64.62-1.86-1.48-11.21-9-17.08-6-8.49,4.36-6.64,29.14,1.84,47.08a68.75,68.75,0,0,0,12,17.54,100.49,100.49,0,0,0-.46-20.31c-.83-6.74-2.34-18.43-9.23-31.38a77.86,77.86,0,0,0-8.42-12.69,195.07,195.07,0,0,0-6.58-35.83c-3.87-13.59-3.6-6.41-9-21.81-1-2.77-2.38-7-6.23-8.83-2.06-1-5.23-1.43-7.61-.23-7.53,3.8-6.15,23.73-2.08,38.08,2.71,9.55,4.09,7.75,8.31,19.62,5.15,14.48,11.09,31.21,4.15,44.3-2.47,4.68-4.9,5.7-8.65,13.5C86.34,371,83.74,376.54,84,383c.33,7.38,4.26,12.66,5.54,14.54,9.9,14.54,11.61,45.93,6.46,68.42C89.37,495.11,70.22,513.6,61,521.38a102.11,102.11,0,0,1-11.54-27.69c-10-39.79,7.86-72.07,12.92-81.23.9-1.62,14.17-25.33,20.43-23.19,3.29,1.13,3.73,9.1,3.11,14.31-.73,6.17-3.71,14.81-22.38,31a205.38,205.38,0,0,1-34.16,24,79,79,0,0,1,9-41.08c3.92-7.27,15-27.81,34.85-30.92a33.79,33.79,0,0,1,9.55-.12,20.64,20.64,0,0,0,5.45-7.36,21.27,21.27,0,0,0,1.56-9.26c-.17-9.46,2.42-15,3.29-21.8,1.76-13.7-3.27-34-7.45-47.95-2.22,5.27-5.51,13.28-9.17,23.2-6.72,18.21-7.55,23.46-10.56,29.77-4.51,9.45-14.07,21.57-36.69,31.5a49.17,49.17,0,0,1,2.77-15.23c5-14.19,15.4-22.29,21.46-27a80.27,80.27,0,0,1,16.79-10c10-6.37,12.57-13.36,13.33-16.1a41.6,41.6,0,0,0,1-5.88,58.29,58.29,0,0,0-.18-15.06c-3.41-25.35-6.22-30.7-4.32-41.54,1.21-6.93,2.63-6.34,4.21-15.06a82.39,82.39,0,0,0,.46-25.61c-2.17-19,4.94-25.47,9.23-60.46,2.92-23.8,4.62-37.64-.23-55.16C90.48,85.73,86,69.52,70.88,59.85,57,51,33.12,46.88,16,61.69-.81,76.17-3.56,102.16,8.11,119.15c11.82,17.21,34.36,19.29,48.23,16.62,31.11-6,54.13-42.63,51.47-71.77-2.25-24.61-22.42-39.57-15-52.85,3.89-7,13-9.26,19.61-10.15"/></g></g></svg>