<svg xmlns="http://www.w3.org/2000/svg" viewBox="0 0 535.54 821.18"><defs><style>.cls-1{fill:none;stroke:#000;stroke-linecap:round;stroke-linejoin:round;stroke-width:2px;}</style></defs><g id="레이어_2" data-name="레이어 2"><g id="레이어_1-2" data-name="레이어 1"><path class="cls-1" d="M534.54,820.18c0-5.41-1.16-49.84-35-73-20.08-13.75-42.84-13.93-51-14-7.49-.06-12.37.73-45,9-50.82,12.89-57.94,15.78-73,14a93,93,0,0,1-39-14,49.11,49.11,0,0,1-11-9c-6.28-7.11-9.35-15.31-14-28-3.33-9.11-3.6-11.71-7-15a26.52,26.52,0,0,0-14-7c-4.72-.71-6.32.56-10-1-4.28-1.81-4.55-4.57-8-7-6.83-4.83-16.77-1.77-19-1-8.66,3-13,10.12-17,17-5.88,10.05-13.77,23.56-9,40,5.49,18.86,23.2,26.28,25,27,2.49,1,20,7.67,36-2,12.11-7.32,16-19.56,18-26,3.88-12.29,5.43-32.64-3-46-1.39-2.21-5.58-8.22-4-10,1-1.08,3.65-.13,4,0,4.6,1.64,6.67,6.76,8,10,8.64,20.94,9.12,17.54,12,28,2.47,9,1.64,9.7,4,15,1.81,4.05,6.76,15.18,15,16,3.54.35,6.28-1.33,9-3,4.59-2.81,6.56-5.85,18-28,2.1-4,3.74-7.31,4-12a24.75,24.75,0,0,0-2-11c-4.21-10.34-14.15-15.85-20-19-13.22-7.11-34.14-13.14-47-5-.75.48-4.42,2.8-4,4,.87,2.41,17.69-1.68,19-2,12-3,11.09-5.15,21-7,9-1.69,18.36-1.79,27-7,2.29-1.38,5.3-3.57,6-7a9.51,9.51,0,0,0-1-6c-5.85-12.76-8.78-19.14-16-27-5.49-6-8.23-9-13-11-2-.83-10.09-4-19-1-2,.7-6.58,2.55-15,13-1,1.18-18.22,23-18,42,0,1.9.1,7.51,2,8,1,.25,2.15-.92,3-2a72.38,72.38,0,0,0,3-26c-.39-5.63-1.92-27.73-18-41a33.37,33.37,0,0,0-13-7c-2.69-.71-6.85-1.42-20,1-3.42.63-19.11,3.63-34,12-1.91,1.08-5.3,3.08-7,7-1.57,3.63-1.65,8.84,1,11,1.5,1.22,3.37,1.05,5,1,5.43-.15,10.67,2,16,3,9.12,1.67,17.8,5.23,27,9,17.26,7.08,22,11.33,25,15,5,6.13,4.3,9.88,4,11-.08.33-1,3.87-3,4a2.72,2.72,0,0,1-2-1,58.88,58.88,0,0,0-18-21,61.33,61.33,0,0,0-33-11c-8.42-.3-20.92-.74-32,8-12.72,10.05-14.43,25-15,30-.61,5.37-2.46,21.61,7,28,5.23,3.53,11.64,2.52,15,2,6.83-1.07,9.07-3.84,23-13a265.84,265.84,0,0,1,24-14c9-4.7,10.79-4.94,12-5,2.11-.11,6,.08,10-2,1-.53,2-1.18,2-2,0-1.44-2.95-2.43-4-3-7.7-4.2-16.5-1.23-20,0-8.95,3.16-12.47,8.17-22,17-14,13-28.45,26.38-40,23-3.81-1.12-3.89-3.06-10-8a80.85,80.85,0,0,0-30-14c-27.8-6.27-52.47,10.29-58,14-10,6.73-24.34,16.34-28,34-.33,1.61-4,21,8,34,1.51,1.63,8.34,9,18,9,1.63,0,9.14,0,12-5a10,10,0,0,0,1-7,9.61,9.61,0,0,0-2-4c-3.27-4.12-9.47-20.17-6-34,2.6-10.32,10.05-17.3,14-21,6.11-5.71,10.4-7,15-14,2.68-4.08,5.71-8.68,5-14-1.59-12-20.83-17.16-24-18-5.89-1.57-15.51-4.13-23,1-4.08,2.8-5.78,7.24-9,16-3,8.06-6.4,17.43-7,30-.2,4.44-1.13,9-3,18-.43,2.13-1.25,5.83-4,7a5.7,5.7,0,0,1-4,0c-5.37-1.87-6.66-10.68-7-13a19.91,19.91,0,0,1,0-8c1.85-7.15,9.53-10.6,22-16,5.27-2.28,15.43-6.6,27-8,9.15-1.11,13.72-1.66,17-1a11.42,11.42,0,0,0,5,0c.51-.12,4.33-1.07,6-4s.51-6.22,0-8c-1.42-5.06-1-11,0-23,.51-6.34,1-13.4,5-21,1.2-2.28,10.15-18.84,24-21,2.16-.34,5.77-1.22,13-3,2.82-.69,6.07-1.54,7-4a4.19,4.19,0,0,0,0-3c-1.77-4-13.14-2.22-19-2-14.25.54-24.78,5.67-32,9-5.93,2.74-10.33,4.81-15,9-2.55,2.3-17.47,16.19-15,34,2,14.58,14.64,23.43,24,30a91.62,91.62,0,0,0,22,11c16.91,6.3,24.51,4.76,37,13,9.55,6.3,10.74,10.92,11,13,.71,5.51-2.81,10-6,14-11.51,14.35-28.76,17.62-36,19-10.73,2-15.47.54-17,0-7.9-2.8-12-9-14-12-1.65-2.49-10-14.91-5-25,2.81-5.62,9.62-9.77,10-10,5.59-3.34,8.65-2.48,11-6,1.65-2.46,1.77-5.31,2-11,.22-5.17-.51-5.54,0-8,1.32-6.27,7.34-10,9-11,3.41-2.09,6-2.5,19-4,15.79-1.82,17.9-1.9,21-4,6.46-4.37,8.47-11.59,9-14,2.32-10.36-3.15-18.54-5-21-6.9-9.2-17.41-10.72-20-11-5-.55-10.67,1-22,4-9,2.4-12.31,4-18,3-2.16-.39-8-1.43-11-6-2.22-3.43-1.47-6.76-1-14,.52-8,.91-14,0-19-2.14-11.78-11.84-19.26-18-24-5.95-4.59-11.67-9-20-9a26.65,26.65,0,0,0-15,5c-10.2,6.88-15.29,20-13,31,.55,2.6,1.87,9,7,12,2.75,1.63,5.74,1.82,16,0,15.32-2.72,16.07-4.47,24-5a55.91,55.91,0,0,1,20,2c9.37,2.77,10.73,6.11,17,6,5.95-.11,14.61-3.28,16-10,1.22-5.85-3.68-11.49-8-14-3.46-2-9.94-4-13-1-3.4,3.33-1.38,11.63,3,16,6,6,16,4.13,22,3,3.37-.63,17.87-3.77,27-17,2.61-3.77,6.52-9.44,6-17-.43-6.39-3.81-10.68-8-16-4.35-5.54-8.95-11.37-17-13a20.13,20.13,0,0,0-12,1c-7.66,3.32-10.65,11.19-14,20a71.07,71.07,0,0,0-4,16c3.69-3.22,8.74-7.41,15-12,9.75-7.13,13.53-8.68,16-14,.28-.59,4-8.95,0-17-3.66-7.38-11.42-9.66-16-11-2.68-.79-18.43-5.42-32,5-9.39,7.21-14.31,19-13,30,.14,1.12,2,14.94,12,20,1.39.7,6.25,3.16,10,1,2.66-1.53,3.41-4.6,4-7,.12-.49,2-8.79-3-15a15.11,15.11,0,0,0-5-4c-7.92-4.06-27.48-28.88-34-59-5.54-25.63.25-46.46,9-78,8.35-30.06,15.64-37.8,15-58-.65-20.71-12.3-29.25-13.5-31.5-4.5-8.5-1-25-1-25,5.07-20,8.91-37.27,10.46-51.28,3-27,4.67-42.27,1.73-63-2.28-16.09-5.8-24.49-3.81-40.5C57,113.15,61.59,99.57,62,98.38c2.91-8.53,6.67-16.67,7.44-18.34,1.75-3.77,2.63-5.66,3.12-6.41C80.21,62,93.91,65.51,97.83,57c1.28-2.78-.55-8.54-4.16-20.08-1-3.24-2.54-7.5-5.54-8.13-1.7-.36-2.6.72-4,.17-2.71-1.08-3.2-6.83-2.77-10.56.13-1,1.36-10.27,9.7-14.88C92,3,98.13-.39,104.4,1.63c3.31,1.07,4.12,2.9,7.27,3,4.09.06,5.12-3,9.52-3.12a10.1,10.1,0,0,1,7.44,2.77c1.46,1.58,2.93,4.74.52,14a70,70,0,0,1-18.34,31.5A73,73,0,0,1,96.53,60.39c22.38,3.43,28.06,7.24,28.3,10.39.16,2.22-2.36,4.61-4.5,5.62-2,.92-3.85.83-13.33-2.25-10.14-3.29-11.56-4.34-12.29-6-1.44-3.25,1.22-5.51-.4-8-2-3-8.77-4.38-12.67-.6-2.88,2.8-3.59,7.87-1.81,9.26,2,1.56,5.77-2.6,15.86-6.12,5-1.75,8.54-3,12.92-2.77,8.37.4,18.45,5.93,18.23,11.77-.16,4.5-6.36,7.91-10.38,9A17.7,17.7,0,0,1,100.77,77c-2.72-2.3-1.69-3-4.16-4.85C91,68,85.06,71.2,81.15,67.06c-.86-.91-1.26-2-2.07-4.16s-6.41-17,.23-28.15c1.21-2,1.93-2.43,2.3-4.15,1.18-5.47-3.46-13.48-9.46-13.85-4.29-.27-7.56,3.48-8.31,4.38-5,6.07-3.15,14.77-1.84,21,1,4.72,3.19,14.56,11.54,23.31,1.75,1.84,11.53,12.09,26.07,13.85,5.79.7,9.64-.27,11.31,2.31,2.25,3.45-.81,11.13-6,13.61-3.46,1.66-8.3-.36-18-4.38-8.26-3.43-10-5.38-10.61-7.39-.9-2.75.71-3.92,0-7.61s-2.94-5.29-5.77-9c-3.84-5-2.32-5.53-6.93-13.39-4.39-7.5-7.46-12.58-12.23-12.92-2.19-.16-5.11.66-6.46,2.77-3.26,5.08,3.7,15.88,11.54,21.92A30,30,0,0,0,70.77,71c11.78,1.75,14.71-4.59,30.69-6.46,14.82-1.73,23.19,2.37,26.14,4,6.25,3.51,7.82,7.1,8.24,8.2,2,5.13.58,12.32-3.92,16.15-5.51,4.7-13.46,2.51-15,2.08-4.77-1.32-7.27-4-11.31-7.38A116.15,116.15,0,0,0,86.46,74.44q-1-3.34-2.08-6.69c7.23-11.19,18.79-25.58,34.85-33.92,8.39-4.36,13.19-4.56,16.85-3,5.91,2.52,8.2,9.4,9.23,12.46s3.43,10.3,0,16.15c-.68,1.15-3.38,5.33-16.85,8.31-9.74,2.16-16.72,1.83-24.23,1.85a257.49,257.49,0,0,0-30,1.84"/></g></g></svg>