<svg xmlns="http://www.w3.org/2000/svg" viewBox="0 0 731.68 1599.87"><defs><style>.cls-1{fill:none;stroke:#000;stroke-linecap:round;stroke-linejoin:round;stroke-width:2px;}</style></defs><g id="Layer_2" data-name="Layer 2"><g id="레이어_1" data-name="레이어 1"><path class="cls-1" d="M363,1c-29.07,131.06-35.17,185-34,208,.29,5.81,1.76,23.68-8,41-4.61,8.18-11.74,14.46-26,27-7.54,6.64-14.78,12.11-24.74,13a26.27,26.27,0,0,1-5.26,0c-14.52-1.47-28.25-15.5-26-25,.81-3.41,3.8-6.72,7-7,1.46-.13,5.46.17,13,13,9.65,16.42,6.49,21.69,14,31,5.39,6.68,15.06,13.93,24,12,.72-.15,7.77-1.78,9-7,.93-3.94-1.9-8.1-5-10-3.6-2.21-6.81-.9-11-1-9-.22-15.74-6.81-20-11-8.72-8.57-10.53-18.05-13-31-1.77-9.25-.85-12.65,1-15a11.38,11.38,0,0,1,11-4,11.64,11.64,0,0,1,9,11c-.07,3.16-2,3.52-4,8-3.17,7-2,14-1,20s1.51,9,4,11c2.16,1.69,3.91,1.25,12,3,1.68.36,4.75,1,8,2,10,3,11.76,5.95,16,5,3.75-.84,7.3-4.24,7-7s-4.49-4.34-9-6a39.68,39.68,0,0,0-15-3c-9.39,0-21.87,3.17-22,7-.1,3.14,8.19,2.87,19,12,1.67,1.41,5.75,5,10,9,4.94,4.62,6.19,6.05,9,7a16.47,16.47,0,0,0,12-1c5.61-3,10-10.16,8-17-1.95-6.54-8.62-8.88-9-9-2.92-1-5.07-.5-9,0-1.37.17,4.79-.63-19,1-14.05,1-17.35,1.33-19-1-1.39-1.95-1.07-5,0-7,1.4-2.6,4.11-3.42,6-4,2.22-.68,4.82-1.46,7,0,2.5,1.67,3.47,5.63,2,8-2.07,3.33-8.8,3.18-10,1s4.17-7.5,15-18a95.29,95.29,0,0,1,21-16c4.3-2.37,7.41-3.58,11-3,5.1.83,8.26,4.81,10,7a22.23,22.23,0,0,1,5,15,23.73,23.73,0,0,1-4,11c-12,16.84-55.95,6.8-56,3,0-1.35,5.49-1.51,9-7a15.34,15.34,0,0,0,2-5c.92-4.35-.77-5.58-4-17-.89-3.16-1.3-4.95-3-6-2.13-1.31-3.86,0-6-1-3.85-1.84-4-8.88-4-10a19.09,19.09,0,0,1,7-15c.86-.69,7.69-6.07,14-4,3.54,1.16,4.3,3.81,8,4,2.21.11,2.63-.8,7-2,4.21-1.16,7.07-1.95,9-1,3.59,1.77,3.73,9.47,3,14-3.53,21.78-36.28,25.47-56,57-1.91,3.05-3.5,6.05-4,7-1.54,2.92-10.24,19.7-13,40-1.59,11.73.06,15.39,2,39,2,24.39,3.11,37.77,2,54-1.08,15.78-2.4,35.11-11,58-5.3,14.11-10.17,21.05-8,32,2.45,12.34,10.81,14.46,16,26,5.71,12.7,1.73,23.84-6,51-11.46,40.26-17.19,60.39-17,71,.56,30.51,14.05,53.88,20,62,7.33,10,11,15,17,19,3.21,2.14,6,3.43,8,7,3,5.47,3.12,14.54-2,18-4.62,3.13-11.48.34-15-2-9.2-6.11-12.06-20.12-9-31,4.31-15.34,19.4-21,22-22,1.61-.61,21.75-7.85,34,4,5,4.86,9.2,13.41,7,21-1,3.59-2.9,4.89-12,13-15.48,13.79-19.21,18.15-21,17s.22-7.68,2-13c3.69-11.06,6-18.12,13-22,10.42-5.81,22.62.28,24,1a30.38,30.38,0,0,1,16,27c-.16,14.41-11.11,23-15,26-8.05,6.29-22.83,12.9-34,7-1-.51-9.38-5.11-10-13-.08-1-.39-4.91,2-7,4.17-3.65,15.23-.56,19,7,.13.26,3,6.24,0,12-3.43,6.6-11.87,7.79-17,7-4.44-.68-5.9-2.77-10-5-10.51-5.71-22.38-3.66-32-2-14.36,2.48-16.88,7.09-25,5-.83-.21-9.88-2.69-14-11-5.19-10.48,1.17-22.73,7-29,.85-.92,9.64-10.08,23-10,17.28.1,33,15.62,35,30,1,6.8-1.51,10.58,0,25,1.14,10.88,3,13,4,14,5.83,5.57,17.12,3,26,1,10.4-2.35,10.48-4.61,17-5,1.76-.1,16.1-.72,25,10,7.12,8.58,10.23,23.79,2,33-4.62,5.17-12.36,6.2-18,7-7.24,1-9-.57-17,1-5.62,1.1-10.35,2.1-14,6-3.33,3.56-4.18,7.86-5,12-1.79,9,.93,12.19-2,16-2.2,2.86-4.37,1.93-10,5-2.44,1.33-9.27,5-12,11-4.79,10.44,5,23.49,7,26a34.85,34.85,0,0,0,17,12c19.2,5.82,36.4-9.31,44-16,5-4.39,11.81-10.55,11-18-.37-3.42-2.25-6.23-5-9-9.1-9.18-19.45-9.62-34-14a121.44,121.44,0,0,1-38-19c-8.15-6.2-14.45-11.14-17-20-3.36-11.64,2-22.15,4-26,7.15-14,19.73-20,28-24,6.19-3,18.08-4.73,42-8,1.06-.14,3.51-.45,5,1a5,5,0,0,1,1,5c-1.21,3.15-6.07,3.46-13,5a90.11,90.11,0,0,0-16,5c-10.81,5.06-15.14,17.53-16,20-5.57,16,2.83,27.58-3,44-1.05,3-3,7.22-7,9-3.59,1.59-7.19.46-9,0-8.72-2.23-17.81.85-36,7-11.95,4-18,6.18-22,12a23.58,23.58,0,0,0-4,14c.11,2.4.5,10.45,6,13,.24.11,4,1.78,7,0,4-2.34,3.76-8.92,4-15,0,0,.54-13.81,6-33,3.45-12.11,5.42-19,12-23,7.28-4.37,15.91-2.52,23-1,5.74,1.23,12.82,2.75,18,9,1.07,1.29,5.74,6.92,5,14-.59,5.66-4.34,9.32-8,13-14.33,14.41-21.5,21.61-23,25-5.33,12-3.29,31.1,3,39,.76,1,3,3.5,3,7,0,3.84-2.61,7.33-5,9-6.62,4.61-18.94.44-26-6-11.07-10.1-11.18-27.64-8-39,4.89-17.45,19.24-26.34,30-33,7.5-4.64,26.43-16.37,51-13,9.94,1.36,24.34,3.33,33,14,2.84,3.5,4.39,7.1,9,9,7.64,3.14,16.31-1.44,21-4,8.84-4.82,9.64-8.47,22-20,10.83-10.1,16.42-15.19,25-17,9.07-1.91,19.45.08,20,3,.33,1.75-2.83,4-5,5a14.51,14.51,0,0,1-8,1c-4.93-.55-9.4,1.81-26,13-18.57,12.52-17.41,12.55-21,14-4.66,1.88-19.65,8-28,1-7.63-6.34-5.35-19.92-4-28,1.1-6.57,3.16-18.9,13-28,20-18.5,52.54-5.6,54-5,17.68,7.3,29.45,23,30,27,0,.28.18,1.66,1,2,1.38.57,4.17-2,5-4,2.3-5.64-7.53-14.67-9-16-14.35-12.94-40.3-20.26-59-21-2.55-.1-8.89-.23-11-4-1.87-3.33.23-8.31,2-11a17.8,17.8,0,0,1,7-6c12.2-6.31,23-11.91,41-13,5.68-.34,8.52-.51,11,0,18.55,3.85,27.08,26.83,29,32,6.66,18,6.78,41.54-1,45-.16.07-2.4,1-4,0-5.24-3.39,2.88-24.14,4-27,5.64-14.41,11-28.12,25-34,2.51-1,10.18-4.16,19-2,7.61,1.86,13.41,9.24,25,24,4.61,5.87,7.78,10.62,8,17,.06,1.91.19,5.69-2,9-3.3,5-9.29,5-19,7-12.38,2.51-9.44,3.81-30,9-11.24,2.84-20.08,5-21,3-.61-1.35,2.42-4.29,5-6,15.71-10.43,43.08,5.77,57,14a22.14,22.14,0,0,1,6,5c6.72,8.1,5.2,18.74,5,20-.7,4.44-1.91,4.47-8,16-6.87,13-6.66,15.47-11,19-1.56,1.27-8.35,6.79-15,5-6.17-1.66-9.11-9.11-15-24-2.31-5.83-4.35-12-6-17-3.35-10.12-4.07-13.48-7-18-3.31-5.11-8.63-12-11-11-1.38.6-1.5,3.79-1,6,.89,3.91,4,6.2,5,7,8.65,7.19,4.11,30.34,3,36-2.55,13-4.41,22.46-13,30-13.37,11.73-31.33,8.52-34,8-16.29-3.18-30.91-16.16-34-32-2.08-10.67,1.68-19.51,7-32,3.39-8,5.86-13.56,12-18,6.69-4.83,18-8.5,25-4,4.2,2.72,3.84,6.5,9,9,4.77,2.31,7.56.27,12,1,8.47,1.38,12.42,11.08,23,30,7.37,13.18,11.06,19.78,13,22,17.52,20,46.81,20.86,52,21,3.9.11,8.92,0,37-7,44.64-11.09,48.75-14.92,66-16,12.14-.76,30.68-1.92,49,7,31.15,15.16,41.79,49.79,44,57,21.92,71.36-60.93,155.94-69,164-117.36,117.13-235.59,34.75-341,131-107.93,98.55-61.58,255.76-144,284-52.74,18.07-118.66-30.23-172-82"/></g></g></svg>