<svg xmlns="http://www.w3.org/2000/svg" viewBox="0 0 127.97 781.07"><defs><style>.cls-1{fill:none;stroke:#000;stroke-linecap:round;stroke-linejoin:round;stroke-width:2px;}</style></defs><g id="레이어_2" data-name="레이어 2"><g id="레이어_1-2" data-name="레이어 1"><path class="cls-1" d="M66.93,127a83.32,83.32,0,0,0,26.31-20.31c6.1-7.11,14.51-16.91,12.92-28.61-.28-2.06-1-7.53-5.07-10.16-6.61-4.29-18.65.56-24,7.85A44.28,44.28,0,0,0,71.55,87.3C69.93,92.29,70,95,67.39,97c-2.24,1.72-5.8,2.36-8.3.92-2.3-1.31-3.23-4.11-3.7-7.84C53.93,78.38,58.86,72.75,60,57.76c.65-8.44-.51-11.91-2.77-13.85s-5.07-2.1-7.38-2.31c-5.84-.51-8.74,1.85-13.39,0-2-.79-2.46-1.62-2.6-2.19-.29-1.29.79-2.81,2-3.52,1.86-1,3.82-.09,7.27.81C48.7,38.14,50.27,39,52,38.09a5,5,0,0,0,2.25-2.77c1-2.63.12-6.39-2.25-7.27s-4.83,1.41-5.19,1.73a9.15,9.15,0,0,0-2.43,4c-2.25,6-.91,9.12-3.11,10.9-.62.5-1.85.62-4.33.87a36.76,36.76,0,0,1-11.42-.69c-2.68-.58-4-.88-4.5-1.74-1.57-2.81,3.81-8.44,4.67-9.34,2.42-2.54,9.15-9.91,15.93-8.48,2.58.54,4,2.11,7.61,2a11.25,11.25,0,0,0,5.11-1.1c1.6-.81,1.72-1.44,3-1.82s2.48-.14,5.45,1c1.76.68,4.06,1.65,6.69,3a29.94,29.94,0,0,1-1.9,4,34,34,0,0,1-8.48,9.7c-6.4,5-12.87,6.3-17,7.09S34,50.68,29,49.34a24,24,0,0,1-7.44-3.47,46.09,46.09,0,0,0-2.25,4.85,52.33,52.33,0,0,0-3.12,13.85c-.31,4.83,1,13.42,12.46,30.8,12.05,18.24,24.67,26.31,23.2,28.39-1.1,1.54-8.65-1.92-12.81-4.16A71.33,71.33,0,0,1,12.36,94C-.15,73.31.7,52.28,1.28,41.37A109.86,109.86,0,0,1,8.2,8.49a25.84,25.84,0,0,0,10,2.77c1.36.08,6,.23,17.65-4.5C45.24,3,45,1.77,49.05,1.22,50.4,1,59.63-.2,66,6.07c5.26,5.16,6.72,13.61,3.89,21.46A7.63,7.63,0,0,0,73,30a8.48,8.48,0,0,0,6.64-.35c2.75-1.26,2.69-2.94,6.81-5.53,1.77-1.12,2.36-1.18,2.77-1.16,2.93.13,4.84,4.69,5.19,5.54a15,15,0,0,1,1.16,5.19c.51,23.7.27,7.39.69,21.81C96.74,72.54,94.4,81,94.16,82a70.94,70.94,0,0,1-9.69,22.38c-3.41,5.12-6.72,10.09-13.15,14.08a36.74,36.74,0,0,1-18.16,5.35,15.07,15.07,0,0,0,1,3.07,17,17,0,0,0,5.31,6.58c3.91,3.08,6.49,9,9.93,17,1,2.34,5.57,13.27,5.65,29.43,0,9.51-1.48,15.89-14.37,53.48-5.71,16.68-9,26-12.11,40.32,0,0-2.6,12.08-1.56,29.95.43,7.32,1.46,14.49,6.75,19,1.16,1,3.19,2.69,5.89,2.77,5.18.16,9.55-5.74,13.5-12.8A119.73,119.73,0,0,0,86.26,275a213.08,213.08,0,0,0,2.42-45.87A154.85,154.85,0,0,0,71,258.93c-1.62,3.61-4,11.18-8.66,26.31,0,0-3.46,11.17-1.21,21.46.26,1.19.81,3.25,2.43,4,2.14,1,5.34-.81,6.92-2.94,2.79-3.76,1.13-9.33.52-11.42-6.33-21.74,2-9.31-8.48-37.91a405.71,405.71,0,0,0-18.87-43.27,55.48,55.48,0,0,0-4.84,12.12c-2.67,10-2.24,19.62.52,32,3,13.29,5.46,15.72,13,36.17,6.76,18.41,10.33,28.12,12.46,41.89,2.24,14.55,1.69,26,1.21,35-.87,16.13-3.37,27.82-7.1,44.48-6.64,29.66-10,44.5-13.32,57.46-8.05,31-29.41,113.39,8.42,162.29C66,652,90.23,672.36,109.39,665.6c9.55-3.36,17-13.15,17.54-22.61,1.24-20.81-30.58-43.12-55.38-40.15-32.37,3.87-52.79,50.81-52.62,86.76.27,54,47.06,86.71,52.62,90.47"/></g></g></svg>