<svg xmlns="http://www.w3.org/2000/svg" viewBox="0 0 147.79 517.81"><defs><style>.cls-1{fill:none;stroke:#000;stroke-linecap:round;stroke-linejoin:round;stroke-width:2px;}</style></defs><g id="레이어_2" data-name="레이어 2"><g id="레이어_1-2" data-name="레이어 1"><path class="cls-1" d="M69.16,41.19a12,12,0,0,0,7.38-.46c1.37-.56,4.15-2,3.92-3.23-.25-1.38-4.5-2.13-8.07-1.84-5.19.41-6.79,2.84-10.16,1.84C60.57,37,58.41,35.66,58.31,34c-.17-2.83,6-5.91,10.62-6.69,8.42-1.43,20.12,2.09,21.46,9.23.69,3.7-1.47,8-4.62,10.15-2.34,1.58-4.57,1.49-9.69,1.39-17.4-.35-16.5.19-19.15-.46-4.14-1-10.39-2.57-15.23-8.08C40.51,38.23,33,29.29,36.62,20.89c2.74-6.28,10.3-8.89,15.46-9,5.73-.13,12.33,2.75,16.62,4.61,4,1.76,6.43,3.28,9.23,2.31s4.61-4.23,5.42-5.77c2-3.77.94-5.37,3.11-8.31.69-.93,2.33-3.14,5-3.63C94.89.48,97.84,3,98.58,3.69c4,3.67,1.94,7.46,5.54,13,1.94,3,2.81,2.31,7.09,6.58,3.3,3.29,7.64,7.61,9.18,12.81,2.26,7.64-2.14,15.06-4.5,19C114.5,57.43,106.46,71,90.45,72.92c-2.4.3-14.32,1.75-22-5.36C63.6,63,64.54,58.86,57.91,53.71,55.68,52,51.31,48.6,46,49c-4.37.36-5.25,2.93-10.21,4.33-5.37,1.51-10.06.09-13.84-1a37.16,37.16,0,0,1-18.7-13.5,17.31,17.31,0,0,0-2.07,6.23C.2,52.27,4.27,57.84,5.46,59.42c4.37,5.8,7.89,4.59,12.47,9.18,1.48,1.49,4.49,5,6.92,21.46,2.73,18.51-.21,19.87,2.94,28.9A47.59,47.59,0,0,0,42,139.21a50.64,50.64,0,0,0,24.41,11.43c6.12,1,22.18,3.75,31-4.85,10.13-9.9,5-29.23-.17-48.46-3.68-13.76-9.34-35-21-43.62a20.6,20.6,0,0,1-7.61-9.86c-1.13-3.43-1.74-9.12,1-10.91a4.37,4.37,0,0,1,3.46-.34c3.92,1.23,4.42,8.92,4.67,11.42.67,6.84,4.83,17.31,13.15,38.25,7.29,18.33,10.51,17.68,13.5,30.64,2.23,9.62,4.38,19-.86,26.82-4.22,6.34-12.62,11.66-20.95,10.73a13.3,13.3,0,0,1-6.05-1.9C67.47,142.73,69.9,125.8,70,125c1.75-11,7.9-11.8,12.29-26a72.52,72.52,0,0,0,2.94-21.81c.07-16.22-.52-25.44-.52-25.44-.28-4.5-.61-8,1.73-10.73,2.63-3,7.1-3.24,11.43-3.46,7.23-.38,8.39,1.53,14,1.27,1.25-.06,9.34-.55,15.69-6,6-5.15,5.73-10.66,12.46-13.62,1.18-.52,3.68-1.58,5.31-.46,2.3,1.58,1.27,6.43,1.15,6.92-1.16,5.19-5.14,7.05-7.61,10.16-5.12,6.42-2.25,16.26-.92,22.61,4,19.13,1,40.08-3.23,51.92-8,22.48-28,32.91-30.47,34.16-4.28,2.16-27.64,13.93-42.69,2.54-9-6.84-10.45-18.54-10.61-20.08-.64-5.91,1-8.28,9.23-31.62,5.94-16.85,6.4-19.34,6.69-21.23,2-12.82-.56-20.78,2.31-21.92s8.39,5,11.54,10.85c6.28,11.72,5.46,27.81-2.31,39.23-4.06,6-6,4.72-9.46,10.61-5.44,9.2-7.71,24-.93,32.31,2.51,3.08,3.66,2.09,22.16,10.39,10,4.5,10,4.92,14.07,6.23,7.83,2.5,15.47,5,24,2.07a26.39,26.39,0,0,0,13.62-10.38,25.3,25.3,0,0,0,3.69-9.46,41.64,41.64,0,0,1-9.46,6c-12.51,5.72-25,3.74-30.69,2.77-12.68-2.17-13.56-6-21.69-5.08-7.4.87-8.46,4.27-18.47,7.85-2.77,1-13.08,4.67-23.53,3.46-15.65-1.82-25.93-13.94-29.54-18.7a44.34,44.34,0,0,1,14.3,1.85c8.25,2.5,9.31,5.54,19.16,8.77a79.76,79.76,0,0,0,15.23,3.23,90.19,90.19,0,0,0,10.56.69,18.65,18.65,0,0,0-.87,8.83c1.25,7.91,7.84,12.26,11.42,15.75,9.73,9.45,9.71,24.5,9.7,36.87,0,12.59-3.6,15.91-16.73,50.71C67.18,287.64,63.3,297.91,62.46,304c-2.79,20.44,3.72,32.06,10.62,57.69a392.6,392.6,0,0,1,11.08,71.08c1.09,19.45.15,48.21-10.62,84"/></g></g></svg>